<?xml version="1.0" standalone="no"?>
<!DOCTYPE svg PUBLIC "-//W3C//DTD SVG 20010904//EN"
 "http://www.w3.org/TR/2001/REC-SVG-20010904/DTD/svg10.dtd">
<svg version="1.0" xmlns="http://www.w3.org/2000/svg"
 width="197.000000pt" height="197.000000pt" viewBox="0 0 197.000000 197.000000"
 preserveAspectRatio="xMidYMid meet">
<metadata>
Created by potrace 1.14, written by Peter Selinger 2001-2017
</metadata>
<g transform="translate(0.000000,197.000000) scale(0.100000,-0.100000)"
fill="#000000" stroke="none">
<path d="M929 1736 c-2 -2 -19 -6 -37 -9 -62 -10 -159 -64 -212 -118 -50 -51
-71 -84 -103 -162 l-16 -37 37 -17 c20 -9 40 -18 43 -20 4 -2 11 16 18 41 11
44 64 124 105 158 12 9 46 30 76 45 48 24 67 28 145 28 77 0 99 -4 147 -27 87
-40 159 -123 191 -220 6 -16 9 -16 47 -1 47 19 47 24 -6 120 -57 103 -154 176
-277 209 -48 13 -148 19 -158 10z"/>
<path d="M898 1600 c-47 -14 -51 -20 -27 -46 15 -16 26 -21 34 -14 24 20 102
41 154 42 44 1 50 3 35 11 -23 13 -158 18 -196 7z"/>
<path d="M788 1537 c-43 -34 -77 -87 -93 -141 -15 -49 -15 -49 13 -72 34 -30
42 -30 42 -1 0 34 45 123 79 156 36 35 37 42 13 64 -23 21 -22 21 -54 -6z"/>
<path d="M397 1414 c-1 -1 -22 -4 -47 -8 -25 -3 -77 -22 -117 -41 -148 -73
-238 -228 -229 -395 10 -188 143 -349 321 -389 64 -14 119 -16 173 -7 l43 8
-3 41 c-3 36 -6 41 -23 39 -11 -2 -54 -4 -95 -4 -112 -1 -209 48 -269 135
-122 177 -58 415 134 503 83 39 194 39 275 2 71 -33 137 -98 168 -168 14 -30
26 -56 27 -58 5 -6 75 32 75 40 0 5 -14 36 -31 69 -53 105 -168 197 -274 219
-49 10 -123 18 -128 14z"/>
<path d="M1450 1404 c-81 -19 -129 -41 -187 -88 -230 -185 -212 -545 36 -704
130 -83 291 -93 424 -26 154 77 237 206 242 376 3 96 -9 151 -50 227 -89 162
-290 255 -465 215z m213 -105 c36 -14 76 -39 106 -68 180 -171 136 -459 -87
-568 -50 -24 -69 -28 -147 -28 -76 0 -98 4 -145 26 -212 100 -268 368 -114
547 93 110 241 144 387 91z"/>
<path d="M1457 1275 c-60 -15 -65 -21 -41 -46 l20 -20 49 22 c29 13 71 22 107
23 63 1 75 11 27 21 -57 13 -114 13 -162 0z"/>
<path d="M1339 1216 c-110 -96 -143 -243 -81 -369 17 -34 45 -76 63 -92 17
-17 30 -25 27 -20 -2 6 -15 33 -28 60 -19 39 -25 68 -27 131 -2 71 2 89 26
140 16 32 43 74 61 93 l32 34 -24 23 -23 23 -26 -23z"/>
<path d="M355 1283 c-11 -3 -31 -9 -44 -14 -23 -9 -23 -10 -5 -30 10 -11 25
-18 34 -15 8 2 35 12 60 21 25 9 68 17 95 16 38 0 46 3 32 10 -20 12 -143 20
-172 12z"/>
<path d="M212 1201 c-109 -110 -116 -285 -16 -404 15 -18 36 -38 48 -46 20
-14 20 -14 5 5 -51 61 -73 156 -57 246 12 63 29 99 75 156 34 41 35 44 18 63
-24 26 -28 25 -73 -20z"/>
<path d="M891 1104 c-212 -55 -348 -234 -337 -447 5 -80 20 -133 59 -199 139
-237 469 -286 668 -99 45 43 119 151 119 175 0 6 -18 18 -40 28 l-39 16 -24
-51 c-90 -193 -337 -256 -510 -131 -98 71 -147 172 -144 295 5 176 140 320
313 334 33 3 74 1 91 -4 31 -9 33 -8 39 17 3 15 8 35 11 45 2 9 -2 19 -9 22
-32 11 -149 11 -197 -1z"/>
<path d="M896 974 c-52 -19 -53 -20 -26 -42 22 -18 24 -18 79 4 31 13 73 24
94 24 56 0 45 18 -15 24 -74 7 -88 6 -132 -10z"/>
<path d="M799 923 c-32 -20 -82 -88 -102 -139 -22 -58 -17 -175 10 -235 19
-42 82 -119 97 -119 4 0 -2 12 -13 28 -11 15 -27 54 -37 86 -31 110 1 237 80
317 l33 34 -22 21 c-20 20 -24 20 -46 7z"/>
</g>
</svg>
